@startuml
'https://plantuml.com/class-diagram

left to right direction
'top to bottom direction

scale 1200 width

package data {

    entity Context {
       - String nameDe
       - String nameEn
       Context[] list()
       Context search()
       Context addNew()
       Context edit()
       void delete()
    }

    entity Project {
      - String name
      - String description
      listVisitsOfPet()
      addNew()
    }

    entity Task {
      - String name
      - String description
      list()
      search()
      addNew()
      edit()
      delete()
    }

    enum TaskTime {
        MIN5
        MIN10
        MIN15
        MIN30
        MIN45
        HOUR1
        HOUR2
        HOUR3
        HOUR4
        HOUR6
        HOUR8
        MORE
        NONE
    }

    enum TaskEnergy {
        LOW
        MEDIUM
        HIGH
        NONE
    }

    enum TaskState {
        INBOX
        TODAY
        NEXT
        WAITING
        SCHEDULED
        SOMEDAY
        FOCUS
        COMPLETED
        TRASH
        DELETED
        ALL
        PROJECTS
    }

    class TaskRepository {
        Page<Task> findByContext(Context context, Pageable request)
        List<Task> findByContext(Context context)
        Page<Task> findByTaskStateInbox(Context context, Pageable request)
        List<Task> findByTaskStateInbox(Context context)

        Page<Task> findByTaskStateToday(Context context, Pageable request)
        List<Task> findByTaskStateToday(Context context)
        Page<Task> findByTaskStateNext(Context context, Pageable request)
        List<Task> findByTaskStateNext(Context context)
        Page<Task> findByTaskStateWaiting(Context context, Pageable request)
        List<Task> findByTaskStateWaiting(Context context)
        Page<Task> findByTaskStateScheduled(Context context, Pageable request)
        List<Task> findByTaskStateScheduled(Context context)
        Page<Task> findByTaskStateSomeday(Context context, Pageable request)
        List<Task> findByTaskStateSomeday(Context context)
        Page<Task> findByFocusIsTrueAndContext(Context context, Pageable request)
        List<Task> findByFocusIsTrueAndContext(Context context)
        Page<Task> findByTaskStateCompleted(Context context, Pageable request)
        List<Task> findByTaskStateCompleted(Context context)
        Page<Task> findByTaskStateTrash(Context context, Pageable request)
        List<Task> findByTaskStateTrash(Context context)
        Page<Task> findByTaskStateDeleted(Context context, Pageable request)
        List<Task> findByTaskStateDeleted(Context context)
        Page<Task> findByTaskStateProjects(Context context, Pageable request)
        List<Task> findByTaskStateProjects(Context context)

        List<Task> findByTaskStateAndContextOrderByOrderIdTaskStateAsc(TaskState taskState, Context context)
        List<Task> findByProject(Project thisProject)
        Page<Task> findByProject(Project thisProject, Pageable pageable)
        Page<Task> findByProjectIsNullAndContext(Context context, Pageable request)

        Task findTopByTaskStateAndContextOrderByOrderIdTaskStateDesc(TaskState taskState, Context context)
        Task findTopByProjectIsNullAndContextOrderByOrderIdProjectDesc(Context context)
        Task findTopByProjectAndContextOrderByOrderIdProjectDesc(Project project, Context context)

        List<Task> getTasksByOrderIdTaskStateBetweenLowerTaskAndHigherTask(long lowerOrderIdTaskState,long higherOrderIdTaskState,TaskState taskState,Context context)
        List<Task> getTasksByOrderIdProjectBetweenLowerTaskAndHigherTask(long lowerOrderIdProject,long higherOrderIdProject,Project project)
        List<Task> getTasksByOrderIdProjectRootBetweenLowerTaskAndHigherTask(long lowerOrderIdProject,long higherOrderIdProject,Context context)
    }

    class TaskService {
        Task findById(long taskId)

        List<Task> findByTaskStateInbox(Context context)
        List<Task> findByTaskStateToday(Context context)
        List<Task> findByTaskStateNext(Context context)
        List<Task> findByTaskStateWaiting(Context context)
        List<Task> findByTaskStateScheduled(Context context)
        List<Task> findByTaskStateSomeday(Context context)
        List<Task> findByFocus(Context context)
        List<Task> findByTaskStateCompleted(Context context)
        List<Task> findByTaskStateTrash(Context context)
        List<Task> findByTaskStateDeleted(Context context)
        List<Task> findByTaskStateProjects(Context context)
        List<Task> findByProjectId(Project thisProject)

        Page<Task> findByTaskStateInbox(Context context, Pageable request)
        Page<Task> findByTaskStateToday(Context context, Pageable request)
        Page<Task> findByTaskStateNext(Context context, Pageable request)
        Page<Task> findByTaskStateWaiting(Context context, Pageable request)
        Page<Task> findByTaskStateScheduled(Context context, Pageable request)
        Page<Task> findByTaskStateSomeday(Context context, Pageable request)
        Page<Task> findByFocus(Context context, Pageable request)
        Page<Task> findByTaskStateCompleted(Context context, Pageable request)
        Page<Task> findByTaskStateTrash(Context context, Pageable request)
        Page<Task> findByTaskStateDeleted(Context context, Pageable request)
        Page<Task> findByTaskStateProjects(Context context, Pageable request)
        Page<Task> findByTaskStateAll(Context context, Pageable pageRequest)

        Page<Task> findByProjectId(Project thisProject, Pageable request)
        Page<Task> findByProjectRoot(Context context, Pageable request)

        boolean projectHasNoTasks(Project project)

        Task saveAndFlush(Task task)
        void saveAll(List<Task> taskListChanged)
        void deleteAll(List<Task> taskListDeleted)

        List<Task> findByTaskStateAndContextOrderByOrderIdTaskStateAsc(TaskState taskState, Context context)

        Task findTopByTaskStateAndContextOrderByOrderIdTaskStateDesc(TaskState taskState, Context context)
        Task findTopByProjectAndContextOrderByOrderIdProjectDesc(Project project, Context context)
        Task findTopByProjectIsNullAndContextOrderByOrderIdProjectDesc(Context context)

        List<Task> getTasksByOrderIdTaskStateBetweenLowerTaskAndHigherTask(long lowerOrderIdTaskState, long higherOrderIdTaskState, TaskState taskState, Context context)
        List<Task> getTasksByOrderIdProjectRootBetweenLowerTaskAndHigherTask(long lowerOrderIdProject, long higherOrderIdProject, Context context)
        List<Task> getTasksByOrderIdProjectIdBetweenLowerTaskAndHigherTask(long lowerOrderIdProject, long higherOrderIdProject, Project project)
    }

    class ProjectRepository {
        List<Project> findByContext(Context context)
        Page<Project> findByContext(Context context, Pageable pageRequest)
        List<Project> findByParentIsNullAndContext(Context context)
        Page<Project> findByParentIsNullAndContext(Context context, Pageable pageRequest)
    }

    class ProjectService {
        Project add(Project project)
        Project update(Project project)
        void delete(Project project)

        List<Task> findByProject(Project thisProject)
        List<Project> findRootProjectsByContext(Context context)
        Page<Project> findRootProjectsByContext(Context context, Pageable pageRequest)
        List<Project> findAllProjectsByContext(Context context)
        Page<Project> findAllProjectsByContext(Context context, Pageable pageRequest)

        Project getReferenceById(long projectId)
        Project findByProjectId(long projectId)
        List<Project> getAllChildrenOfProject(Project thisProject)
    }

    class ContextRepository {
        List<Context> findByUserAccount(UserAccount user)
        Context findByIdAndUserAccount(long newContextId, UserAccount userAccount)
    }

    class ContextService {
        List<Context> getAllForUser(UserAccount user)
        Context findByIdAndUserAccount(long newContextId, UserAccount userAccount)
        Context createNewContext(NewContextForm newContext, UserAccount user)
        Context updateContext(Context context)
        boolean delete(Context context)
        boolean contextHasItems(Context context)
        Optional<Context> getContextFor(UserSessionBean userSession)
    }

    ContextService o--> ContextRepository: contextRepository
    ProjectService o-->  ProjectRepository: projectRepository
    TaskService o--> TaskRepository: taskRepository

    ContextRepository o--> Context
    ProjectRepository o--> Project
    TaskRepository o--> Task

    Task --> TaskTime
    Task --> TaskEnergy
    Task --> TaskState
}

@enduml
